# xmcd
#
# Track frame offsets:
#	150
#	18146
#	34538
#	53112
#	65864
#	80187
#	101734
#	121783
#	138727
#	159792
#	179216
#	198569
#	216671
#	235517
#	249897
#	267484
#	285028
#	298974
#	315138
#
# Disc length: 4375 seconds
#
# Revision: 5
# Processed by: cddbd v1.5.2PL0 Copyright (c) Steve Scherf et al.
# Submitted via: EasyCDDAExtractor 12.0.0.1
#
DISCID=16111513
DTITLE=Alejandra Guzman - Serie Platino
DYEAR=2000
DGENRE=Latin
TTITLE0=Mirala, Miralo
TTITLE1=Pasa La Vida
TTITLE2=Ven
TTITLE3=Eternamente Bella
TTITLE4=Mala Hierba
TTITLE5=Despertar
TTITLE6=Loca
TTITLE7=Toda La Mitad
TTITLE8=Hacer El Amor Con Otro
TTITLE9=Güerra
TTITLE10=No Hay Nadie Como Tu
TTITLE11=Morir De Amor
TTITLE12=Libre
TTITLE13=No Hay Vacuna Contra El Amor
TTITLE14=Corazones Rotos
TTITLE15=Te Esperaba
TTITLE16=Reina De Corazones
TTITLE17=Guerra Fria
TTITLE18=Dime Adios
EXTD=
EXTT0=
EXTT1=
EXTT2=
EXTT3=
EXTT4=
EXTT5=
EXTT6=
EXTT7=
EXTT8=
EXTT9=
EXTT10=
EXTT11=
EXTT12=
EXTT13=
EXTT14=
EXTT15=
EXTT16=
EXTT17=
EXTT18=
PLAYORDER=
